# xmcd
# 
# Track frame offsets:
#     150
#     15057
#     37626
#     55494
#     66039
#     84114
#     109557
#     127467
#     140355
#     158501
#     168932
# 
# Disc length: 2506
# 
# Revision: 1
# Processed by: cddbd v1.5.2PL0 Copyright (c) Steve Scherf et al.
# Submitted via: BonkEnc v1.0.15
# 
DISCID=7909c80b
DTITLE=Easy-Offs - Life Is A Drone
DYEAR=2011
DGENRE=Blues
TTITLE0=Hole In The Ground
TTITLE1=Jealous Blues
TTITLE2=Hand Full O' Gimme
TTITLE3=Cottonmouth
TTITLE4=Denise
TTITLE5=Life Is A Drone
TTITLE6=Peach Tree Blues
TTITLE7=Going Back Home
TTITLE8=Skid Row Holler
TTITLE9=Boogie In B
TTITLE10=Poor Boy Long Ways From Home
EXTD=
EXTT0=
EXTT1=
EXTT2=
EXTT3=
EXTT4=
EXTT5=
EXTT6=
EXTT7=
EXTT8=
EXTT9=
EXTT10=
PLAYORDER=
